<mxfile host="Electron" modified="2024-03-13T14:06:32.599Z" agent="Mozilla/5.0 (Windows NT 10.0; Win64; x64) AppleWebKit/537.36 (KHTML, like Gecko) draw.io/23.1.5 Chrome/120.0.6099.109 Electron/28.1.0 Safari/537.36" etag="KiJ2dsgRD_8IcFBMcWRK" version="23.1.5" type="device">
  <diagram name="Seite-1" id="BvE6TG6BBU9rYh6C0rz1">
    <mxGraphModel dx="683" dy="402" grid="1" gridSize="10" guides="1" tooltips="1" connect="1" arrows="1" fold="1" page="1" pageScale="1" pageWidth="1169" pageHeight="827" math="0" shadow="0">
      <root>
        <mxCell id="0" />
        <mxCell id="1" parent="0" />
        <mxCell id="pyTbGisuyOn4FTs-dm-G-3" value="Promise C" style="rounded=0;whiteSpace=wrap;html=1;verticalAlign=top;fillColor=#fad9d5;strokeColor=#ae4132;" vertex="1" parent="1">
          <mxGeometry x="200" y="60" width="240" height="165" as="geometry" />
        </mxCell>
        <mxCell id="pyTbGisuyOn4FTs-dm-G-2" value="Promise B" style="rounded=0;whiteSpace=wrap;html=1;verticalAlign=top;fillColor=#fad7ac;strokeColor=#b46504;" vertex="1" parent="1">
          <mxGeometry x="230" y="90" width="180" height="110" as="geometry" />
        </mxCell>
        <mxCell id="pyTbGisuyOn4FTs-dm-G-1" value="Promise A" style="rounded=0;whiteSpace=wrap;html=1;fillColor=#b0e3e6;strokeColor=#0e8088;" vertex="1" parent="1">
          <mxGeometry x="260" y="120" width="120" height="60" as="geometry" />
        </mxCell>
        <mxCell id="pyTbGisuyOn4FTs-dm-G-4" value="&lt;pre style=&quot;&quot;&gt;&lt;font face=&quot;consolas&quot;&gt;&lt;span style=&quot;background-color: initial;&quot;&gt;const promiseB = promiseA.then(result =&amp;gt; { &lt;/span&gt;&lt;span style=&quot;background-color: initial;&quot;&gt;})&lt;/span&gt;&lt;/font&gt;&lt;/pre&gt;&lt;pre style=&quot;&quot;&gt;&lt;font face=&quot;consolas&quot;&gt;const promiseC = promiseB.then( result =&amp;gt; { })&lt;/font&gt;&lt;/pre&gt;&lt;pre style=&quot;&quot;&gt;&lt;font face=&quot;consolas&quot;&gt;promiseA.then( result =&amp;gt; { return 10} )&lt;/font&gt;&lt;/pre&gt;&lt;pre style=&quot;&quot;&gt;&lt;font face=&quot;consolas&quot;&gt;&lt;span style=&quot;white-space: pre;&quot;&gt;&#x9;&lt;/span&gt;.then( result =&amp;gt; { return 20})&lt;/font&gt;&lt;/pre&gt;&lt;pre style=&quot;&quot;&gt;&lt;font face=&quot;consolas&quot;&gt;&lt;span style=&quot;white-space: pre;&quot;&gt;&#x9;&lt;/span&gt;.then( result =&amp;gt; { console.log(result) }) // 20&lt;/font&gt;&lt;/pre&gt;" style="text;html=1;align=left;verticalAlign=middle;whiteSpace=wrap;rounded=0;" vertex="1" parent="1">
          <mxGeometry x="490" y="60" width="430" height="160" as="geometry" />
        </mxCell>
        <mxCell id="pyTbGisuyOn4FTs-dm-G-6" value="" style="endArrow=classic;html=1;rounded=0;" edge="1" parent="1">
          <mxGeometry width="50" height="50" relative="1" as="geometry">
            <mxPoint x="718" y="149" as="sourcePoint" />
            <mxPoint x="610" y="159" as="targetPoint" />
          </mxGeometry>
        </mxCell>
        <mxCell id="pyTbGisuyOn4FTs-dm-G-7" value="" style="endArrow=classic;html=1;rounded=0;" edge="1" parent="1">
          <mxGeometry width="50" height="50" relative="1" as="geometry">
            <mxPoint x="725" y="178" as="sourcePoint" />
            <mxPoint x="620" y="188" as="targetPoint" />
          </mxGeometry>
        </mxCell>
        <mxCell id="pyTbGisuyOn4FTs-dm-G-8" value="Das Ergebnis (return value) eines then-Callbacks wird an das nächste Callback als Input (result) weitergereicht.&lt;div&gt;&lt;br&gt;&lt;/div&gt;&lt;div&gt;Besonderheit: Wenn das Ergebnis ein Promise-Objekt ist, dann wird erst auf das Ergebnis dieses Promise-Objektes gewartet. Das neue Ergebnis wird dann als Input an den nächsten then-Callback weitergereicht.&lt;/div&gt;" style="shape=note;whiteSpace=wrap;html=1;backgroundOutline=1;darkOpacity=0.05;size=11;fillColor=#ffe6cc;strokeColor=#d79b00;align=left;" vertex="1" parent="1">
          <mxGeometry x="470" y="230" width="360" height="130" as="geometry" />
        </mxCell>
      </root>
    </mxGraphModel>
  </diagram>
</mxfile>
